<?xml version="1.0" encoding="UTF-8" standalone="no"?>
<!-- Created with Inkscape (http://www.inkscape.org/) -->

<svg
   width="210mm"
   height="297mm"
   viewBox="0 0 210 297"
   version="1.1"
   id="svg5"
   inkscape:version="1.2.2 (732a01da63, 2022-12-09)"
   sodipodi:docname="risba.svg"
   inkscape:export-filename="logotip.svg"
   inkscape:export-xdpi="300"
   inkscape:export-ydpi="300"
   xmlns:inkscape="http://www.inkscape.org/namespaces/inkscape"
   xmlns:sodipodi="http://sodipodi.sourceforge.net/DTD/sodipodi-0.dtd"
   xmlns="http://www.w3.org/2000/svg"
   xmlns:svg="http://www.w3.org/2000/svg">
  <sodipodi:namedview
     id="namedview7"
     pagecolor="#ffffff"
     bordercolor="#000000"
     borderopacity="0.25"
     inkscape:showpageshadow="2"
     inkscape:pageopacity="0.0"
     inkscape:pagecheckerboard="0"
     inkscape:deskcolor="#d1d1d1"
     inkscape:document-units="mm"
     showgrid="false"
     inkscape:zoom="0.66142459"
     inkscape:cx="666.74268"
     inkscape:cy="347.73428"
     inkscape:window-width="1366"
     inkscape:window-height="705"
     inkscape:window-x="-8"
     inkscape:window-y="-8"
     inkscape:window-maximized="1"
     inkscape:current-layer="layer1" />
  <defs
     id="defs2" />
  <g
     inkscape:label="Plast 1"
     inkscape:groupmode="layer"
     id="layer1">
    <path
       style="fill:#4596ea;fill-opacity:0.599078;stroke-width:0.264583"
       d="m 53.202712,52.802694 c 0,0 -4.207651,11.103441 -1.20006,15.200775 4.938132,6.727371 24.401246,5.600285 24.401246,5.600285 4.635558,-2.980744 9.191709,-5.405636 14.000712,-9.600491 5.656467,-6.299293 8.788403,-13.43227 8.190369,-14.750141 0.742651,-2.957843 2.261251,-9.56308 -1.741511,-19.370836 -0.811642,-2.138087 -2.087977,-3.845996 -3.647035,-5.224062 -1.559057,-1.378066 -3.400839,-2.426289 -5.343374,-3.245 -5.067163,-0.562257 -8.633542,-0.687438 -11.671304,1.715163 -4.905061,3.87947 -5.283392,8.383219 -7.388246,12.073409 l -2.800141,19.200979 1.20006,12.000611 5.600284,22.401143 6.800347,24.001221 0.800042,21.60111 c 0,0 -8.979778,10.21295 -15.200775,11.60059 -4.926518,1.0989 -10.483111,-0.58557 -14.800755,-3.20017 -3.563267,-2.15777 -6.497552,-5.71534 -8.000409,-9.60048 -2.214935,-5.72598 -0.80004,-18.40094 -0.80004,-18.40094 -0.0017,0.003 -4.617917,-4.18695 3.200164,-16.400842 1.417799,-2.214973 4.245997,-3.374453 6.800345,-4.000204 5.057552,-1.238973 15.600797,0.800042 15.600797,0.800042 l 15.200775,5.600284 8.000407,7.60039 c 0,0 6.517558,4.0299 10.00051,5.60028 2.57572,1.16133 5.25723,2.12339 8.00041,2.80015 3.53353,0.87175 7.1621,1.51381 10.80055,1.60008 2.67935,0.0635 6.14445,1.13345 8.00041,-0.80004 1.57245,-1.63814 0.40002,-6.80035 0.40002,-6.80035 l -1.60008,-11.600591 -1.20007,-5.200263 c 0,0 -1.34745,3.871494 -2.80014,5.200263 -1.49861,1.370771 -3.62547,1.925781 -5.60028,2.400121 -3.89821,0.93633 -8.00622,1.14293 -12.00061,0.80004 -9.022176,-0.7745 -26.401352,-6.400323 -26.401352,-6.400323 L 63.603244,90.004591 c 0,0 -10.802738,-1.005525 -13.200673,2.800143 -6.555604,10.404146 -7.026317,11.035696 -8.800449,17.200876 -2.859501,9.93689 -2.902638,18.74236 2.000102,22.80116 3.995162,3.30745 11.200572,10.80056 11.200572,10.80056 0,0 9.759216,0.87846 12.400633,-2.40013 17.990577,-22.33036 -2.000103,-86.004383 -2.000103,-86.004383 34.426779,-142.040046 5.711219,353.686823 13.532061,-29.526634 0.133825,-6.557311 10.163183,0.57278 11.669222,2.725265 1.537633,2.19764 6.433314,9.563144 5.295248,14.144225 -0.501897,6.37337 -1.518642,8.896447 -2.446574,11.29347 -0.979515,2.530273 -2.145126,4.880625 -5.248795,9.764101 -2.965272,4.665715 -7.158343,5.831419 -10.800551,8.400429 z"
       id="path449"
       sodipodi:nodetypes="csccccscsccccccssscsscccsssscccsssccssscscsscsscc" />
    <path
       style="fill:#000000;stroke-width:0.264583"
       d="m 79.60406,24.001224 c -5.675599,38.55268 -0.800041,74.670477 -1.200061,112.005716 l -9.60049,6.40032 -3.600183,-87.604464 z"
       id="path451"
       sodipodi:nodetypes="ccccc" />
    <path
       style="fill:#030f12;fill-opacity:0.516129;stroke-width:0.264583"
       d="m 108.9,58.26857 c 0,0 -8.58414,-18.55971 -16.688573,-17.82 -7.475161,0.68227 -11.129787,12.2999 -10.748571,19.8 0.730139,14.364895 25.944534,21.347947 24.325714,35.639999 -1.34416,11.867181 -14.362649,24.327341 -26.305714,24.325721 -13.744387,-0.002 -30.265713,-28.002863 -30.265713,-28.002863 0,0 12.320201,-3.110392 17.819999,-0.848572 5.80123,2.385786 6.456119,13.809145 12.728572,13.860005 5.068513,0.0411 9.100676,-6.150022 10.465713,-11.031435 3.35183,-11.986239 -12.381819,-25.006756 -7.92,-36.488575 C 84.255956,52.6989 87.97845,50.84087 93.342855,50.63143 99.115333,50.40605 108.9,58.26857 108.9,58.26857 Z"
       id="path1235"
       sodipodi:nodetypes="csssscsssssc" />
    <path
       style="fill:#b1d9e5;fill-opacity:0.626728;stroke-width:0.264583"
       d="M 74.957143,24.325714 C 65.339999,53.459998 66.848663,43.336253 65.622857,53.459998 61.77963,85.200625 67.32,144.54 67.32,144.54 L 84.291428,132.09428 82.200993,90.505619 78.917143,25.174285 Z"
       id="path502"
       sodipodi:nodetypes="csccccc" />
    <text
       xml:space="preserve"
       style="font-size:3.175px;fill:#030f12;fill-opacity:0.516129;stroke-width:0.264583"
       x="48.683334"
       y="276.75415"
       id="text2596"><tspan
         sodipodi:role="line"
         id="tspan2594"
         style="stroke-width:0.264583"
         x="48.683334"
         y="276.75415">Logotip © 2023 by Lina Smrkolj is licensed under CC BY-NC-SA 4.0 </tspan></text>
  </g>
</svg>
